<?xml version="1.0" encoding="UTF-8"?>
<!DOCTYPE svg PUBLIC "-//W3C//DTD SVG 1.1//EN" "http://www.w3.org/Graphics/SVG/1.1/DTD/svg11.dtd">
<svg xmlns="http://www.w3.org/2000/svg" version="1.1" width="2048px" height="2048px" style="shape-rendering:geometricPrecision; text-rendering:geometricPrecision; image-rendering:optimizeQuality; fill-rule:evenodd; clip-rule:evenodd" xmlns:xlink="http://www.w3.org/1999/xlink">
<g><path style="opacity:0.998" fill="#274e6f" d="M 1443.5,542.5 C 1443.67,608.834 1443.5,675.168 1443,741.5C 1437.48,775.052 1425.48,806.052 1407,834.5C 1378,880.166 1339.5,915.333 1291.5,940C 1266.18,951.993 1239.52,958.66 1211.5,960C 1076.49,960.178 941.488,960.678 806.5,961.5C 805.833,961.5 805.5,961.833 805.5,962.5C 803.833,962.5 802.167,962.5 800.5,962.5C 799.833,962.5 799.5,962.833 799.5,963.5C 770.564,968.756 743.897,979.59 719.5,996C 682.527,1019.97 652.694,1050.81 630,1088.5C 616.87,1111.89 608.537,1136.89 605,1163.5C 604.5,1234.5 604.333,1305.5 604.5,1376.5C 603.209,1376.26 602.209,1376.6 601.5,1377.5C 526.166,1377.67 450.833,1377.5 375.5,1377C 310.538,1373.44 258.038,1346.27 218,1295.5C 191.629,1259.46 172.296,1219.79 160,1176.5C 141.298,1111.32 128.631,1044.99 122,977.5C 113.984,891.654 122.984,807.654 149,725.5C 160.899,688.799 174.566,652.799 190,617.5C 207.197,577.989 231.697,543.822 263.5,515C 300.232,485.755 342.232,471.421 389.5,472C 439.071,471.831 488.571,471.331 538,470.5C 538.333,409.5 538.667,348.5 539,287.5C 542.436,252.973 555.436,222.639 578,196.5C 601.214,170.828 627.714,149.328 657.5,132C 711.006,102.273 767.672,80.6059 827.5,67C 981.846,29.9293 1132.51,41.2627 1279.5,101C 1322.5,119.347 1360,145.514 1392,179.5C 1421.81,213.479 1438.81,253.145 1443,298.5C 1443.5,379.833 1443.67,461.166 1443.5,542.5 Z"/></g>
<g><path style="opacity:1" fill="#628fb4" d="M 1298.5,191.5 C 1284.17,191.5 1269.83,191.5 1255.5,191.5C 1254.74,188.21 1254.74,185.044 1255.5,182C 1220.5,181.5 1185.5,181.333 1150.5,181.5C 1150.5,175.833 1150.5,170.167 1150.5,164.5C 1088.5,164.5 1026.5,164.5 964.5,164.5C 904.833,164.5 845.167,164.5 785.5,164.5C 785.5,160.833 785.5,157.167 785.5,153.5C 784.167,153.5 782.833,153.5 781.5,153.5C 938.366,99.8126 1094.03,103.313 1248.5,164C 1266.32,171.404 1282.99,180.57 1298.5,191.5 Z"/></g>
<g><path style="opacity:1" fill="#6593b8" d="M 781.5,153.5 C 782.833,153.5 784.167,153.5 785.5,153.5C 785.5,157.167 785.5,160.833 785.5,164.5C 845.167,164.5 904.833,164.5 964.5,164.5C 964.5,170.167 964.5,175.833 964.5,181.5C 984.5,181.5 1004.5,181.5 1024.5,181.5C 1024.5,182.833 1024.5,184.167 1024.5,185.5C 951.815,183.273 880.981,193.606 812,216.5C 810.97,216.836 810.47,217.503 810.5,218.5C 774.031,201.867 742.197,208.201 715,237.5C 711.055,242.393 707.888,247.727 705.5,253.5C 678.492,253.167 651.492,253.5 624.5,254.5C 618.375,264.745 613.375,275.411 609.5,286.5C 612.537,272.214 618.37,259.214 627,247.5C 645.853,224.976 668.02,206.476 693.5,192C 721.547,176.141 750.881,163.308 781.5,153.5 Z"/></g>
<g><path style="opacity:1" fill="#6791b4" d="M 964.5,164.5 C 1026.5,164.5 1088.5,164.5 1150.5,164.5C 1150.5,170.167 1150.5,175.833 1150.5,181.5C 1185.5,181.333 1220.5,181.5 1255.5,182C 1254.74,185.044 1254.74,188.21 1255.5,191.5C 1269.83,191.5 1284.17,191.5 1298.5,191.5C 1318.42,204.262 1335.59,219.928 1350,238.5C 1365.18,261.195 1373.01,286.195 1373.5,313.5C 1373.5,339.167 1373.5,364.833 1373.5,390.5C 1372.5,366.672 1372.17,342.672 1372.5,318.5C 1368.17,318.5 1363.83,318.5 1359.5,318.5C 1359.5,315.167 1359.5,311.833 1359.5,308.5C 1340.33,308.17 1321.33,308.503 1302.5,309.5C 1301.83,309.5 1301.5,309.167 1301.5,308.5C 1302.67,299.499 1300.83,291.165 1296,283.5C 1279.95,262.383 1259.79,246.383 1235.5,235.5C 1168.27,206.118 1097.94,189.451 1024.5,185.5C 1024.5,184.167 1024.5,182.833 1024.5,181.5C 1004.5,181.5 984.5,181.5 964.5,181.5C 964.5,175.833 964.5,170.167 964.5,164.5 Z"/></g>
<g><path style="opacity:1" fill="#497da8" d="M 1024.5,185.5 C 1097.94,189.451 1168.27,206.118 1235.5,235.5C 1101.67,236.5 967.668,236.833 833.5,236.5C 826.98,228.973 819.313,222.973 810.5,218.5C 810.47,217.503 810.97,216.836 812,216.5C 880.981,193.606 951.815,183.273 1024.5,185.5 Z"/></g>
<g><path style="opacity:1" fill="#fefefe" d="M 810.5,218.5 C 819.313,222.973 826.98,228.973 833.5,236.5C 841.397,247.301 846.897,259.301 850,272.5C 850.5,280.159 850.666,287.826 850.5,295.5C 842.171,337.134 816.671,359.801 774,363.5C 729.288,359.287 704.122,334.954 698.5,290.5C 697.187,277.43 699.52,265.097 705.5,253.5C 707.888,247.727 711.055,242.393 715,237.5C 742.197,208.201 774.031,201.867 810.5,218.5 Z"/></g>
<g><path style="opacity:1" fill="#4e80aa" d="M 1235.5,235.5 C 1259.79,246.383 1279.95,262.383 1296,283.5C 1300.83,291.165 1302.67,299.499 1301.5,308.5C 1181.83,308.5 1062.17,308.5 942.5,308.5C 942.5,305.167 942.5,301.833 942.5,298.5C 911.833,298.5 881.167,298.5 850.5,298.5C 850.5,297.5 850.5,296.5 850.5,295.5C 850.666,287.826 850.5,280.159 850,272.5C 846.897,259.301 841.397,247.301 833.5,236.5C 967.668,236.833 1101.67,236.5 1235.5,235.5 Z"/></g>
<g><path style="opacity:1" fill="#6d98bd" d="M 705.5,253.5 C 699.52,265.097 697.187,277.43 698.5,290.5C 697.679,287.359 697.179,284.025 697,280.5C 679.253,294.556 672.419,312.889 676.5,335.5C 676.5,344.833 676.5,354.167 676.5,363.5C 660.833,363.5 645.167,363.5 629.5,363.5C 629.5,360.167 629.5,356.833 629.5,353.5C 622.5,353.5 615.5,353.5 608.5,353.5C 608.5,375.167 608.5,396.833 608.5,418.5C 608.5,436.167 608.5,453.833 608.5,471.5C 607.335,414.001 607.168,356.335 608,298.5C 608.392,294.472 608.892,290.472 609.5,286.5C 613.375,275.411 618.375,264.745 624.5,254.5C 651.492,253.5 678.492,253.167 705.5,253.5 Z"/></g>
<g><path style="opacity:1" fill="#5587b0" d="M 698.5,290.5 C 704.122,334.954 729.288,359.287 774,363.5C 816.671,359.801 842.171,337.134 850.5,295.5C 850.5,296.5 850.5,297.5 850.5,298.5C 881.167,298.5 911.833,298.5 942.5,298.5C 942.5,301.833 942.5,305.167 942.5,308.5C 929.833,308.5 917.167,308.5 904.5,308.5C 904.5,314.167 904.5,319.833 904.5,325.5C 924.5,325.5 944.5,325.5 964.5,325.5C 964.5,332.5 964.5,339.5 964.5,346.5C 984.5,346.5 1004.5,346.5 1024.5,346.5C 1024.5,355.5 1024.5,364.5 1024.5,373.5C 1044.17,373.5 1063.83,373.5 1083.5,373.5C 1083.5,375.833 1083.5,378.167 1083.5,380.5C 984.167,380.5 884.833,380.5 785.5,380.5C 785.5,378.167 785.5,375.833 785.5,373.5C 768.167,373.5 750.833,373.5 733.5,373.5C 733.5,370.167 733.5,366.833 733.5,363.5C 714.833,363.5 696.167,363.5 677.5,363.5C 677.827,353.985 677.494,344.652 676.5,335.5C 672.419,312.889 679.253,294.556 697,280.5C 697.179,284.025 697.679,287.359 698.5,290.5 Z"/></g>
<g><path style="opacity:1" fill="#5484ac" d="M 942.5,308.5 C 1062.17,308.5 1181.83,308.5 1301.5,308.5C 1301.5,309.167 1301.83,309.5 1302.5,309.5C 1302.5,311.167 1302.5,312.833 1302.5,314.5C 1302.5,336.5 1302.5,358.5 1302.5,380.5C 1229.5,380.5 1156.5,380.5 1083.5,380.5C 1083.5,378.167 1083.5,375.833 1083.5,373.5C 1063.83,373.5 1044.17,373.5 1024.5,373.5C 1024.5,364.5 1024.5,355.5 1024.5,346.5C 1004.5,346.5 984.5,346.5 964.5,346.5C 964.5,339.5 964.5,332.5 964.5,325.5C 944.5,325.5 924.5,325.5 904.5,325.5C 904.5,319.833 904.5,314.167 904.5,308.5C 917.167,308.5 929.833,308.5 942.5,308.5 Z"/></g>
<g><path style="opacity:1" fill="#7298b8" d="M 1373.5,390.5 C 1373.5,403.167 1373.5,415.833 1373.5,428.5C 1350.17,428.5 1326.83,428.5 1303.5,428.5C 1303.5,415.833 1303.5,403.167 1303.5,390.5C 1303.83,364.995 1303.5,339.661 1302.5,314.5C 1302.5,312.833 1302.5,311.167 1302.5,309.5C 1321.33,308.503 1340.33,308.17 1359.5,308.5C 1359.5,311.833 1359.5,315.167 1359.5,318.5C 1363.83,318.5 1368.17,318.5 1372.5,318.5C 1372.17,342.672 1372.5,366.672 1373.5,390.5 Z"/></g>
<g><path style="opacity:1" fill="#759dbf" d="M 676.5,363.5 C 676.5,376.5 676.5,389.5 676.5,402.5C 819.5,402.5 962.5,402.5 1105.5,402.5C 1105.5,407.833 1105.5,413.167 1105.5,418.5C 1105.5,421.833 1105.5,425.167 1105.5,428.5C 998.833,428.5 892.167,428.5 785.5,428.5C 785.5,425.167 785.5,421.833 785.5,418.5C 726.5,418.5 667.5,418.5 608.5,418.5C 608.5,396.833 608.5,375.167 608.5,353.5C 615.5,353.5 622.5,353.5 629.5,353.5C 629.5,356.833 629.5,360.167 629.5,363.5C 645.167,363.5 660.833,363.5 676.5,363.5 Z"/></g>
<g><path style="opacity:1" fill="#5988ae" d="M 1302.5,314.5 C 1303.5,339.661 1303.83,364.995 1303.5,390.5C 1302.5,408.659 1302.17,426.992 1302.5,445.5C 1286.5,445.5 1270.5,445.5 1254.5,445.5C 1254.5,442.167 1254.5,438.833 1254.5,435.5C 1219.83,435.5 1185.17,435.5 1150.5,435.5C 1150.5,429.833 1150.5,424.167 1150.5,418.5C 1135.5,418.5 1120.5,418.5 1105.5,418.5C 1105.5,413.167 1105.5,407.833 1105.5,402.5C 962.5,402.5 819.5,402.5 676.5,402.5C 676.5,389.5 676.5,376.5 676.5,363.5C 676.5,354.167 676.5,344.833 676.5,335.5C 677.494,344.652 677.827,353.985 677.5,363.5C 696.167,363.5 714.833,363.5 733.5,363.5C 733.5,366.833 733.5,370.167 733.5,373.5C 750.833,373.5 768.167,373.5 785.5,373.5C 785.5,375.833 785.5,378.167 785.5,380.5C 884.833,380.5 984.167,380.5 1083.5,380.5C 1156.5,380.5 1229.5,380.5 1302.5,380.5C 1302.5,358.5 1302.5,336.5 1302.5,314.5 Z"/></g>
<g><path style="opacity:1" fill="#779fc0" d="M 608.5,418.5 C 667.5,418.5 726.5,418.5 785.5,418.5C 785.5,421.833 785.5,425.167 785.5,428.5C 892.167,428.5 998.833,428.5 1105.5,428.5C 1105.5,456.167 1105.5,483.833 1105.5,511.5C 1082.5,511.5 1059.5,511.5 1036.5,511.5C 1036.5,522.167 1036.5,532.833 1036.5,543.5C 971.331,543.832 906.331,543.499 841.5,542.5C 906.167,542.5 970.833,542.5 1035.5,542.5C 1035.5,519.167 1035.5,495.833 1035.5,472.5C 892.999,472.833 750.666,472.5 608.5,471.5C 608.5,453.833 608.5,436.167 608.5,418.5 Z"/></g>
<g><path style="opacity:1" fill="#789dbb" d="M 1303.5,428.5 C 1326.83,428.5 1350.17,428.5 1373.5,428.5C 1373.5,436.5 1373.5,444.5 1373.5,452.5C 1351.35,474.325 1328.02,494.659 1303.5,513.5C 1303.5,485.167 1303.5,456.833 1303.5,428.5 Z"/></g>
<g><path style="opacity:1" fill="#5685ab" d="M 1373.5,452.5 C 1373.5,544.833 1373.5,637.167 1373.5,729.5C 1369.07,760.029 1357.24,787.363 1338,811.5C 1320.34,836.491 1298.17,856.657 1271.5,872C 1265.76,874.54 1260.1,877.04 1254.5,879.5C 1241.86,883.775 1228.86,886.441 1215.5,887.5C 1171.5,887.5 1127.5,887.5 1083.5,887.5C 1083.5,864.833 1083.5,842.167 1083.5,819.5C 1125,819.832 1166.34,819.499 1207.5,818.5C 1228.85,816.49 1247.19,807.99 1262.5,793C 1285.52,769.122 1299.02,740.622 1303,707.5C 1303.5,643.168 1303.67,578.834 1303.5,514.5C 1303.5,514.167 1303.5,513.833 1303.5,513.5C 1328.02,494.659 1351.35,474.325 1373.5,452.5 Z"/></g>
<g><path style="opacity:1" fill="#5f8cb1" d="M 1303.5,390.5 C 1303.5,403.167 1303.5,415.833 1303.5,428.5C 1303.5,456.833 1303.5,485.167 1303.5,513.5C 1303.5,513.833 1303.5,514.167 1303.5,514.5C 1301.18,515.806 1298.85,517.139 1296.5,518.5C 1233,517.501 1169.34,517.168 1105.5,517.5C 1105.5,515.5 1105.5,513.5 1105.5,511.5C 1105.5,483.833 1105.5,456.167 1105.5,428.5C 1105.5,425.167 1105.5,421.833 1105.5,418.5C 1120.5,418.5 1135.5,418.5 1150.5,418.5C 1150.5,424.167 1150.5,429.833 1150.5,435.5C 1185.17,435.5 1219.83,435.5 1254.5,435.5C 1254.5,438.833 1254.5,442.167 1254.5,445.5C 1270.5,445.5 1286.5,445.5 1302.5,445.5C 1302.17,426.992 1302.5,408.659 1303.5,390.5 Z"/></g>
<g><path style="opacity:1" fill="#366d9b" d="M 1303.5,514.5 C 1303.67,578.834 1303.5,643.168 1303,707.5C 1299.02,740.622 1285.52,769.122 1262.5,793C 1247.19,807.99 1228.85,816.49 1207.5,818.5C 1205.83,818.5 1204.17,818.5 1202.5,818.5C 1202.5,737.167 1202.5,655.833 1202.5,574.5C 1236.12,559.37 1267.45,540.703 1296.5,518.5C 1298.85,517.139 1301.18,515.806 1303.5,514.5 Z"/></g>
<g><path style="opacity:1" fill="#6590b4" d="M 1105.5,517.5 C 1169.34,517.168 1233,517.501 1296.5,518.5C 1267.45,540.703 1236.12,559.37 1202.5,574.5C 1171.19,588.494 1138.85,599.494 1105.5,607.5C 1105.5,577.5 1105.5,547.5 1105.5,517.5 Z"/></g>
<g><path style="opacity:1" fill="#80a5c4" d="M 1105.5,511.5 C 1105.5,513.5 1105.5,515.5 1105.5,517.5C 1105.5,547.5 1105.5,577.5 1105.5,607.5C 1097.56,609.486 1089.56,611.153 1081.5,612.5C 963.164,612.706 844.831,612.372 726.5,611.5C 726.027,607.791 726.027,604.291 726.5,601C 706.503,600.5 686.503,600.333 666.5,600.5C 666.5,594.833 666.5,589.167 666.5,583.5C 646.5,583.5 626.5,583.5 606.5,583.5C 606.5,577.833 606.5,572.167 606.5,566.5C 586.833,566.5 567.167,566.5 547.5,566.5C 547.5,559.5 547.5,552.5 547.5,545.5C 527.5,545.5 507.5,545.5 487.5,545.5C 487.5,544.5 487.5,543.5 487.5,542.5C 451.167,542.5 414.833,542.5 378.5,542.5C 532.668,541.269 687.001,541.269 841.5,542.5C 906.331,543.499 971.331,543.832 1036.5,543.5C 1036.5,532.833 1036.5,522.167 1036.5,511.5C 1059.5,511.5 1082.5,511.5 1105.5,511.5 Z"/></g>
<g><path style="opacity:0.999" fill="#ba9400" d="M 1443.5,542.5 C 1520.5,542.333 1597.5,542.5 1674.5,543C 1748.49,548.739 1804.99,582.906 1844,645.5C 1867.98,686.09 1885.31,729.423 1896,775.5C 1911.16,833.968 1921.16,893.301 1926,953.5C 1931.57,1025.99 1924.9,1097.32 1906,1167.5C 1892.96,1212.94 1876.96,1257.28 1858,1300.5C 1842.03,1336.77 1820.2,1368.94 1792.5,1397C 1759.86,1427.23 1721.19,1443.9 1676.5,1447C 1620.83,1447.5 1565.17,1447.67 1509.5,1447.5C 1509.5,1457.17 1509.5,1466.83 1509.5,1476.5C 1509.67,1521.17 1509.5,1565.83 1509,1610.5C 1506.86,1652.94 1492.53,1690.6 1466,1723.5C 1441.21,1752.62 1412.04,1776.12 1378.5,1794C 1315.32,1826.47 1248.65,1848.8 1178.5,1861C 1034.54,1887.38 895.21,1872.04 760.5,1815C 722.732,1797.88 689.232,1774.71 660,1745.5C 626.986,1710.79 607.986,1669.46 603,1621.5C 602.703,1568.5 602.203,1515.5 601.5,1462.5C 601.5,1434.17 601.5,1405.83 601.5,1377.5C 602.209,1376.6 603.209,1376.26 604.5,1376.5C 604.333,1305.5 604.5,1234.5 605,1163.5C 608.537,1136.89 616.87,1111.89 630,1088.5C 652.694,1050.81 682.527,1019.97 719.5,996C 743.897,979.59 770.564,968.756 799.5,963.5C 800.167,963.5 800.5,963.167 800.5,962.5C 802.167,962.5 803.833,962.5 805.5,962.5C 806.167,962.5 806.5,962.167 806.5,961.5C 941.488,960.678 1076.49,960.178 1211.5,960C 1239.52,958.66 1266.18,951.993 1291.5,940C 1339.5,915.333 1378,880.166 1407,834.5C 1425.48,806.052 1437.48,775.052 1443,741.5C 1443.5,675.168 1443.67,608.834 1443.5,542.5 Z"/></g>
<g><path style="opacity:1" fill="#82a9c9" d="M 378.5,542.5 C 414.833,542.5 451.167,542.5 487.5,542.5C 487.5,543.5 487.5,544.5 487.5,545.5C 507.5,545.5 527.5,545.5 547.5,545.5C 547.5,552.5 547.5,559.5 547.5,566.5C 567.167,566.5 586.833,566.5 606.5,566.5C 606.5,572.167 606.5,577.833 606.5,583.5C 626.5,583.5 646.5,583.5 666.5,583.5C 666.5,589.167 666.5,594.833 666.5,600.5C 686.503,600.333 706.503,600.5 726.5,601C 726.027,604.291 726.027,607.791 726.5,611.5C 611.832,611.332 497.165,611.165 382.5,611C 376.316,612.34 370.316,614.173 364.5,616.5C 347.358,622.307 334.858,633.307 327,649.5C 322.864,657.439 319.03,665.439 315.5,673.5C 293.673,672.503 271.673,672.169 249.5,672.5C 249.5,675.833 249.5,679.167 249.5,682.5C 245.731,682.244 242.064,682.577 238.5,683.5C 248.6,656.302 261.1,630.302 276,605.5C 288.457,586.71 303.957,570.876 322.5,558C 336.932,550.412 352.265,545.412 368.5,543C 371.817,542.502 375.15,542.335 378.5,542.5 Z"/></g>
<g><path style="opacity:1" fill="#366f9e" d="M 1202.5,574.5 C 1202.5,655.833 1202.5,737.167 1202.5,818.5C 1115.83,818.5 1029.17,818.5 942.5,818.5C 942.5,755.833 942.5,693.167 942.5,630.5C 989.434,628.11 1035.77,622.11 1081.5,612.5C 1089.56,611.153 1097.56,609.486 1105.5,607.5C 1138.85,599.494 1171.19,588.494 1202.5,574.5 Z"/></g>
<g><path style="opacity:1" fill="#6d99be" d="M 726.5,611.5 C 844.831,612.372 963.164,612.706 1081.5,612.5C 1035.77,622.11 989.434,628.11 942.5,630.5C 910.179,631.65 877.845,632.316 845.5,632.5C 762.481,632.17 681.147,643.503 601.5,666.5C 576.005,665.502 550.339,665.169 524.5,665.5C 524.5,662.167 524.5,658.833 524.5,655.5C 492.167,655.5 459.833,655.5 427.5,655.5C 427.5,649.833 427.5,644.167 427.5,638.5C 407.833,638.5 388.167,638.5 368.5,638.5C 368.5,631.5 368.5,624.5 368.5,617.5C 366.901,617.768 365.568,617.434 364.5,616.5C 370.316,614.173 376.316,612.34 382.5,611C 497.165,611.165 611.832,611.332 726.5,611.5 Z"/></g>
<g><path style="opacity:1" fill="#feefa4" d="M 1793.5,698.5 C 1764.66,698.169 1736,698.502 1707.5,699.5C 1694.58,691.213 1680.58,685.38 1665.5,682C 1637.84,681.5 1610.17,681.333 1582.5,681.5C 1582.5,696.167 1582.5,710.833 1582.5,725.5C 1582.5,726.167 1582.17,726.5 1581.5,726.5C 1581.5,717.167 1581.5,707.833 1581.5,698.5C 1558.83,698.5 1536.17,698.5 1513.5,698.5C 1513.82,704.69 1513.49,710.69 1512.5,716.5C 1512.5,681.833 1512.5,647.167 1512.5,612.5C 1567.17,612.333 1621.83,612.5 1676.5,613C 1716.37,617.18 1748.54,635.014 1773,666.5C 1780.59,676.686 1787.43,687.353 1793.5,698.5 Z"/></g>
<g><path style="opacity:1" fill="#466887" d="M 1373.5,313.5 C 1374.12,432.838 1375.12,552.338 1376.5,672C 1376.33,685.167 1376.17,698.333 1376,711.5C 1375.82,717.734 1374.99,723.734 1373.5,729.5C 1373.5,637.167 1373.5,544.833 1373.5,452.5C 1373.5,444.5 1373.5,436.5 1373.5,428.5C 1373.5,415.833 1373.5,403.167 1373.5,390.5C 1373.5,364.833 1373.5,339.167 1373.5,313.5 Z"/></g>
<g><path style="opacity:1" fill="#3671a1" d="M 942.5,630.5 C 942.5,693.167 942.5,755.833 942.5,818.5C 910.167,818.5 877.833,818.5 845.5,818.5C 845.5,756.5 845.5,694.5 845.5,632.5C 877.845,632.316 910.179,631.65 942.5,630.5 Z"/></g>
<g><path style="opacity:1" fill="#3673a5" d="M 845.5,632.5 C 845.5,694.5 845.5,756.5 845.5,818.5C 825.221,817.871 805.221,819.204 785.5,822.5C 714.555,833.813 651.889,862.646 597.5,909C 579.225,925.105 562.558,942.605 547.5,961.5C 522.498,991.808 502.831,1025.47 488.5,1062.5C 487.5,945.001 487.167,827.335 487.5,709.5C 524.203,692.039 562.203,677.706 601.5,666.5C 681.147,643.503 762.481,632.17 845.5,632.5 Z"/></g>
<g><path style="opacity:1" fill="#729ec3" d="M 364.5,616.5 C 365.568,617.434 366.901,617.768 368.5,617.5C 368.5,624.5 368.5,631.5 368.5,638.5C 388.167,638.5 407.833,638.5 427.5,638.5C 427.5,644.167 427.5,649.833 427.5,655.5C 459.833,655.5 492.167,655.5 524.5,655.5C 524.5,658.833 524.5,662.167 524.5,665.5C 550.339,665.169 576.005,665.502 601.5,666.5C 562.203,677.706 524.203,692.039 487.5,709.5C 473.92,715.29 460.586,721.623 447.5,728.5C 396.992,728.165 346.658,727.165 296.5,725.5C 302.043,707.872 308.376,690.538 315.5,673.5C 319.03,665.439 322.864,657.439 327,649.5C 334.858,633.307 347.358,622.307 364.5,616.5 Z"/></g>
<g><path style="opacity:1" fill="#8bb0cf" d="M 315.5,673.5 C 308.376,690.538 302.043,707.872 296.5,725.5C 291.303,739.09 286.303,752.757 281.5,766.5C 258.006,765.502 234.339,765.169 210.5,765.5C 218.446,737.663 227.779,710.33 238.5,683.5C 242.064,682.577 245.731,682.244 249.5,682.5C 249.5,679.167 249.5,675.833 249.5,672.5C 271.673,672.169 293.673,672.503 315.5,673.5 Z"/></g>
<g><path style="opacity:1" fill="#ffe673" d="M 1707.5,699.5 C 1715.96,705.965 1722.63,713.965 1727.5,723.5C 1679.51,725.495 1631.18,726.162 1582.5,725.5C 1582.5,710.833 1582.5,696.167 1582.5,681.5C 1610.17,681.333 1637.84,681.5 1665.5,682C 1680.58,685.38 1694.58,691.213 1707.5,699.5 Z"/></g>
<g><path style="opacity:1" fill="#feefab" d="M 1581.5,726.5 C 1581.52,739.587 1580.52,752.587 1578.5,765.5C 1577.83,768.167 1577.17,770.833 1576.5,773.5C 1553.16,773.167 1529.82,773.5 1506.5,774.5C 1508.77,775.314 1511.1,775.814 1513.5,776C 1525.5,776.333 1537.5,776.667 1549.5,777C 1534.84,777.5 1520.17,777.667 1505.5,777.5C 1509.78,757.404 1512.12,737.071 1512.5,716.5C 1513.49,710.69 1513.82,704.69 1513.5,698.5C 1536.17,698.5 1558.83,698.5 1581.5,698.5C 1581.5,707.833 1581.5,717.167 1581.5,726.5 Z"/></g>
<g><path style="opacity:1" fill="#feefab" d="M 1707.5,699.5 C 1736,698.502 1764.66,698.169 1793.5,698.5C 1806.84,723.17 1816.84,749.17 1823.5,776.5C 1822.6,775.791 1822.26,774.791 1822.5,773.5C 1798.66,773.169 1774.99,773.502 1751.5,774.5C 1750.69,772.739 1749.69,771.072 1748.5,769.5C 1743.41,753.224 1736.41,737.89 1727.5,723.5C 1722.63,713.965 1715.96,705.965 1707.5,699.5 Z"/></g>
<g><path style="opacity:1" fill="#3775aa" d="M 487.5,709.5 C 487.167,827.335 487.5,945.001 488.5,1062.5C 474.84,1096.82 467.006,1132.48 465,1169.5C 464.5,1192.16 464.333,1214.83 464.5,1237.5C 435.831,1237.67 407.165,1237.5 378.5,1237C 358.949,1232.64 342.116,1223.48 328,1209.5C 313.203,1187.57 301.869,1163.9 294,1138.5C 275.184,1074.08 263.184,1008.42 258,941.5C 256.747,913.364 257.913,885.364 261.5,857.5C 261.5,857.167 261.5,856.833 261.5,856.5C 318.283,806.427 380.283,763.76 447.5,728.5C 460.586,721.623 473.92,715.29 487.5,709.5 Z"/></g>
<g><path style="opacity:1" fill="#ffe779" d="M 1727.5,723.5 C 1736.41,737.89 1743.41,753.224 1748.5,769.5C 1743.04,770.829 1737.21,771.496 1731,771.5C 1684.66,770.241 1638.33,768.907 1592,767.5C 1587.11,767.493 1582.61,766.826 1578.5,765.5C 1580.52,752.587 1581.52,739.587 1581.5,726.5C 1582.17,726.5 1582.5,726.167 1582.5,725.5C 1631.18,726.162 1679.51,725.495 1727.5,723.5 Z"/></g>
<g><path style="opacity:1" fill="#79a3c6" d="M 296.5,725.5 C 346.658,727.165 396.992,728.165 447.5,728.5C 380.283,763.76 318.283,806.427 261.5,856.5C 265.894,825.987 272.561,795.987 281.5,766.5C 286.303,752.757 291.303,739.09 296.5,725.5 Z"/></g>
<g><path style="opacity:1" fill="#92b5d2" d="M 210.5,765.5 C 234.339,765.169 258.006,765.502 281.5,766.5C 272.561,795.987 265.894,825.987 261.5,856.5C 261.5,856.833 261.5,857.167 261.5,857.5C 236.594,879.069 212.594,901.736 189.5,925.5C 187.922,870.892 194.922,817.559 210.5,765.5 Z"/></g>
<g><path style="opacity:1" fill="#fef0b1" d="M 1576.5,773.5 C 1574.42,788.47 1571.09,803.137 1566.5,817.5C 1562.73,829.045 1558.39,840.378 1553.5,851.5C 1541.35,850.168 1528.85,849.501 1516,849.5C 1503.09,849.509 1490.26,849.842 1477.5,850.5C 1489.39,827.066 1498.73,802.732 1505.5,777.5C 1520.17,777.667 1534.84,777.5 1549.5,777C 1537.5,776.667 1525.5,776.333 1513.5,776C 1511.1,775.814 1508.77,775.314 1506.5,774.5C 1529.82,773.5 1553.16,773.167 1576.5,773.5 Z"/></g>
<g><path style="opacity:1" fill="#fef0b1" d="M 1823.5,776.5 C 1830.55,799.719 1836.21,823.385 1840.5,847.5C 1817.4,845.526 1794.06,844.859 1770.5,845.5C 1770.5,846.5 1770.5,847.5 1770.5,848.5C 1768.15,837.761 1765.48,827.095 1762.5,816.5C 1759.46,802.339 1755.79,788.339 1751.5,774.5C 1774.99,773.502 1798.66,773.169 1822.5,773.5C 1822.26,774.791 1822.6,775.791 1823.5,776.5 Z"/></g>
<g><path style="opacity:1" fill="#ffe780" d="M 1578.5,765.5 C 1582.61,766.826 1587.11,767.493 1592,767.5C 1638.33,768.907 1684.66,770.241 1731,771.5C 1737.21,771.496 1743.04,770.829 1748.5,769.5C 1749.69,771.072 1750.69,772.739 1751.5,774.5C 1755.79,788.339 1759.46,802.339 1762.5,816.5C 1730.17,817.833 1697.51,818.5 1664.5,818.5C 1631.66,818.5 1599,818.167 1566.5,817.5C 1571.09,803.137 1574.42,788.47 1576.5,773.5C 1577.17,770.833 1577.83,768.167 1578.5,765.5 Z"/></g>
<g><path style="opacity:1" fill="#ffe886" d="M 1762.5,816.5 C 1765.48,827.095 1768.15,837.761 1770.5,848.5C 1771.55,852.426 1772.22,856.426 1772.5,860.5C 1698.51,862.497 1624.17,863.164 1549.5,862.5C 1550.83,858.833 1552.17,855.167 1553.5,851.5C 1558.39,840.378 1562.73,829.045 1566.5,817.5C 1599,818.167 1631.66,818.5 1664.5,818.5C 1697.51,818.5 1730.17,817.833 1762.5,816.5 Z"/></g>
<g><path style="opacity:1" fill="#5687b0" d="M 845.5,818.5 C 877.833,818.5 910.167,818.5 942.5,818.5C 1029.17,818.5 1115.83,818.5 1202.5,818.5C 1204.17,818.5 1205.83,818.5 1207.5,818.5C 1166.34,819.499 1125,819.832 1083.5,819.5C 1083.5,842.167 1083.5,864.833 1083.5,887.5C 1127.5,887.5 1171.5,887.5 1215.5,887.5C 1081,888.333 946.334,888.833 811.5,889C 802.799,890.004 794.132,891.171 785.5,892.5C 785.5,869.167 785.5,845.833 785.5,822.5C 805.221,819.204 825.221,817.871 845.5,818.5 Z"/></g>
<g><path style="opacity:1" fill="#578ab4" d="M 785.5,822.5 C 785.5,845.833 785.5,869.167 785.5,892.5C 700.709,911.535 634.042,956.868 585.5,1028.5C 569.674,1051.48 557.008,1076.15 547.5,1102.5C 547.5,1055.5 547.5,1008.5 547.5,961.5C 562.558,942.605 579.225,925.105 597.5,909C 651.889,862.646 714.555,833.813 785.5,822.5 Z"/></g>
<g><path style="opacity:1" fill="#fef1b7" d="M 1840.5,847.5 C 1845.06,868.31 1848.73,889.31 1851.5,910.5C 1828.5,910.5 1805.5,910.5 1782.5,910.5C 1781.83,908.167 1781.17,905.833 1780.5,903.5C 1778.75,888.879 1776.08,874.545 1772.5,860.5C 1772.22,856.426 1771.55,852.426 1770.5,848.5C 1770.5,847.5 1770.5,846.5 1770.5,845.5C 1794.06,844.859 1817.4,845.526 1840.5,847.5 Z"/></g>
<g><path style="opacity:1" fill="#fef0b7" d="M 1553.5,851.5 C 1552.17,855.167 1550.83,858.833 1549.5,862.5C 1542.7,876.776 1535.36,890.776 1527.5,904.5C 1524.83,908.167 1522.17,911.833 1519.5,915.5C 1490.6,914.172 1461.6,914.172 1432.5,915.5C 1449.46,895.206 1464.46,873.539 1477.5,850.5C 1490.26,849.842 1503.09,849.509 1516,849.5C 1528.85,849.501 1541.35,850.168 1553.5,851.5 Z"/></g>
<g><path style="opacity:1" fill="#578cb8" d="M 261.5,857.5 C 257.913,885.364 256.747,913.364 258,941.5C 263.184,1008.42 275.184,1074.08 294,1138.5C 301.869,1163.9 313.203,1187.57 328,1209.5C 342.116,1223.48 358.949,1232.64 378.5,1237C 407.165,1237.5 435.831,1237.67 464.5,1237.5C 464.333,1214.83 464.5,1192.16 465,1169.5C 467.006,1132.48 474.84,1096.82 488.5,1062.5C 502.831,1025.47 522.498,991.808 547.5,961.5C 547.5,1008.5 547.5,1055.5 547.5,1102.5C 541.444,1122.06 537.278,1142.06 535,1162.5C 534.5,1210.83 534.333,1259.17 534.5,1307.5C 481.499,1307.67 428.499,1307.5 375.5,1307C 338.149,1304.91 306.982,1290.07 282,1262.5C 262.063,1238.64 246.729,1211.98 236,1182.5C 207.838,1099.18 192.338,1013.52 189.5,925.5C 212.594,901.736 236.594,879.069 261.5,857.5 Z"/></g>
<g><path style="opacity:1" fill="#ffe98c" d="M 1772.5,860.5 C 1776.08,874.545 1778.75,888.879 1780.5,903.5C 1696.33,904.499 1612,904.833 1527.5,904.5C 1535.36,890.776 1542.7,876.776 1549.5,862.5C 1624.17,863.164 1698.51,862.497 1772.5,860.5 Z"/></g>
<g><path style="opacity:1" fill="#ffea92" d="M 1780.5,903.5 C 1781.17,905.833 1781.83,908.167 1782.5,910.5C 1783.54,918.131 1784.21,925.798 1784.5,933.5C 1784.5,935.167 1784.5,936.833 1784.5,938.5C 1691.17,938.5 1597.83,938.5 1504.5,938.5C 1509.74,931.032 1514.74,923.366 1519.5,915.5C 1522.17,911.833 1524.83,908.167 1527.5,904.5C 1612,904.833 1696.33,904.499 1780.5,903.5 Z"/></g>
<g><path style="opacity:1" fill="#366f9f" d="M 1254.5,879.5 C 1241.86,885.161 1228.53,888.661 1214.5,890C 1079.5,890.333 944.5,890.667 809.5,891C 767.466,895.52 728.466,908.853 692.5,931C 650.366,956.296 614.699,988.796 585.5,1028.5C 634.042,956.868 700.709,911.535 785.5,892.5C 794.132,891.171 802.799,890.004 811.5,889C 946.334,888.833 1081,888.333 1215.5,887.5C 1228.86,886.441 1241.86,883.775 1254.5,879.5 Z"/></g>
<g><path style="opacity:1" fill="#fef2bd" d="M 1782.5,910.5 C 1805.5,910.5 1828.5,910.5 1851.5,910.5C 1852.58,916.782 1853.24,923.116 1853.5,929.5C 1850.25,936.274 1845.58,942.107 1839.5,947C 1823.59,962.079 1807.26,976.579 1790.5,990.5C 1789.83,987.167 1789.17,983.833 1788.5,980.5C 1788.22,964.6 1786.88,948.933 1784.5,933.5C 1784.21,925.798 1783.54,918.131 1782.5,910.5 Z"/></g>
<g><path style="opacity:1" fill="#fef2be" d="M 1519.5,915.5 C 1514.74,923.366 1509.74,931.032 1504.5,938.5C 1496.57,948.269 1488.41,957.936 1480,967.5C 1475.63,972.037 1471.13,976.37 1466.5,980.5C 1431.67,979.502 1396.67,979.168 1361.5,979.5C 1382.84,964.873 1402.67,948.207 1421,929.5C 1425.07,924.94 1428.9,920.274 1432.5,915.5C 1461.6,914.172 1490.6,914.172 1519.5,915.5 Z"/></g>
<g><path style="opacity:1" fill="#ffeb98" d="M 1784.5,933.5 C 1786.88,948.933 1788.22,964.6 1788.5,980.5C 1788.5,981.5 1788.5,982.5 1788.5,983.5C 1680.67,983.833 1573,983.499 1465.5,982.5C 1465.83,981.833 1466.17,981.167 1466.5,980.5C 1471.13,976.37 1475.63,972.037 1480,967.5C 1488.41,957.936 1496.57,948.269 1504.5,938.5C 1597.83,938.5 1691.17,938.5 1784.5,938.5C 1784.5,936.833 1784.5,935.167 1784.5,933.5 Z"/></g>
<g><path style="opacity:1" fill="#d6be63" d="M 1432.5,915.5 C 1428.9,920.274 1425.07,924.94 1421,929.5C 1402.67,948.207 1382.84,964.873 1361.5,979.5C 1323.46,1004.79 1281.8,1020.96 1236.5,1028C 1225.54,1029.25 1214.54,1029.75 1203.5,1029.5C 1283.99,1023.41 1353.33,992.58 1411.5,937C 1418,929.329 1425,922.162 1432.5,915.5 Z"/></g>
<g><path style="opacity:1" fill="#ffec9f" d="M 1788.5,980.5 C 1789.17,983.833 1789.83,987.167 1790.5,990.5C 1789.83,991.167 1789.17,991.833 1788.5,992.5C 1775.73,1002.94 1762.39,1012.61 1748.5,1021.5C 1703.67,1020.34 1658.67,1020.17 1613.5,1021C 1649.17,1022.02 1684.83,1023.02 1720.5,1024C 1619.33,1024.83 1518.33,1024.67 1417.5,1023.5C 1434.62,1011.26 1450.62,997.589 1465.5,982.5C 1573,983.499 1680.67,983.833 1788.5,983.5C 1788.5,982.5 1788.5,981.5 1788.5,980.5 Z"/></g>
<g><path style="opacity:1" fill="#fee788" d="M 1853.5,929.5 C 1856.61,951.91 1857.94,974.577 1857.5,997.5C 1857.78,1024.31 1856.11,1050.97 1852.5,1077.5C 1829.82,1077.13 1807.15,1076.46 1784.5,1075.5C 1784.5,1074.17 1784.5,1072.83 1784.5,1071.5C 1788.27,1045.13 1789.6,1018.79 1788.5,992.5C 1789.17,991.833 1789.83,991.167 1790.5,990.5C 1807.26,976.579 1823.59,962.079 1839.5,947C 1845.58,942.107 1850.25,936.274 1853.5,929.5 Z"/></g>
<g><path style="opacity:1" fill="#fef3c4" d="M 1361.5,979.5 C 1396.67,979.168 1431.67,979.502 1466.5,980.5C 1466.17,981.167 1465.83,981.833 1465.5,982.5C 1450.62,997.589 1434.62,1011.26 1417.5,1023.5C 1409.77,1029.23 1401.77,1034.56 1393.5,1039.5C 1191.67,1038.5 989.667,1038.17 787.5,1038.5C 793.697,1036.03 800.031,1034.03 806.5,1032.5C 812.127,1031.48 817.793,1030.64 823.5,1030C 950.166,1029.5 1076.83,1029.33 1203.5,1029.5C 1214.54,1029.75 1225.54,1029.25 1236.5,1028C 1281.8,1020.96 1323.46,1004.79 1361.5,979.5 Z"/></g>
<g><path style="opacity:1" fill="#d6be63" d="M 806.5,1032.5 C 800.031,1034.03 793.697,1036.03 787.5,1038.5C 748.36,1051.3 718.027,1075.3 696.5,1110.5C 695.649,1112.88 694.316,1114.88 692.5,1116.5C 716.014,1069 754.014,1041 806.5,1032.5 Z"/></g>
<g><path style="opacity:1" fill="#fef4ca" d="M 787.5,1038.5 C 989.667,1038.17 1191.67,1038.5 1393.5,1039.5C 1380.92,1047.62 1367.92,1054.96 1354.5,1061.5C 1318.81,1078.28 1281.48,1089.62 1242.5,1095.5C 1233.55,1096.8 1224.55,1097.63 1215.5,1098C 1085.83,1098.33 956.167,1098.67 826.5,1099C 810.238,1100.06 794.905,1104.23 780.5,1111.5C 752.672,1110.5 724.672,1110.17 696.5,1110.5C 718.027,1075.3 748.36,1051.3 787.5,1038.5 Z"/></g>
<g><path style="opacity:1" fill="#ffeda5" d="M 1748.5,1021.5 C 1727.31,1035.94 1704.97,1048.6 1681.5,1059.5C 1586.33,1058.33 1491,1058.17 1395.5,1059C 1431.5,1060 1467.5,1061 1503.5,1062C 1453.66,1062.83 1404,1062.66 1354.5,1061.5C 1367.92,1054.96 1380.92,1047.62 1393.5,1039.5C 1401.77,1034.56 1409.77,1029.23 1417.5,1023.5C 1518.33,1024.67 1619.33,1024.83 1720.5,1024C 1684.83,1023.02 1649.17,1022.02 1613.5,1021C 1658.67,1020.17 1703.67,1020.34 1748.5,1021.5 Z"/></g>
<g><path style="opacity:1" fill="#ffd73b" d="M 1788.5,992.5 C 1789.6,1018.79 1788.27,1045.13 1784.5,1071.5C 1778.3,1108.31 1768.63,1144.31 1755.5,1179.5C 1523.84,1172.78 1292.17,1166.11 1060.5,1159.5C 1080.72,1152.61 1101.38,1146.94 1122.5,1142.5C 1175.55,1130.9 1229.22,1123.73 1283.5,1121C 1355.73,1122.27 1427.73,1118.93 1499.5,1111C 1523.69,1107.25 1547.69,1102.75 1571.5,1097.5C 1609.52,1088.61 1646.18,1075.94 1681.5,1059.5C 1704.97,1048.6 1727.31,1035.94 1748.5,1021.5C 1762.39,1012.61 1775.73,1002.94 1788.5,992.5 Z"/></g>
<g><path style="opacity:1" fill="#ffeeab" d="M 1681.5,1059.5 C 1646.18,1075.94 1609.52,1088.61 1571.5,1097.5C 1461.83,1096.83 1352.17,1096.17 1242.5,1095.5C 1281.48,1089.62 1318.81,1078.28 1354.5,1061.5C 1404,1062.66 1453.66,1062.83 1503.5,1062C 1467.5,1061 1431.5,1060 1395.5,1059C 1491,1058.17 1586.33,1058.33 1681.5,1059.5 Z"/></g>
<g><path style="opacity:1" fill="#fee685" d="M 1784.5,1071.5 C 1784.5,1072.83 1784.5,1074.17 1784.5,1075.5C 1807.15,1076.46 1829.82,1077.13 1852.5,1077.5C 1844.86,1128.08 1831.53,1177.08 1812.5,1224.5C 1791.5,1224.17 1770.5,1223.67 1749.5,1223C 1746.32,1223.05 1743.66,1222.22 1741.5,1220.5C 1746.17,1206.83 1750.83,1193.17 1755.5,1179.5C 1768.63,1144.31 1778.3,1108.31 1784.5,1071.5 Z"/></g>
<g><path style="opacity:1" fill="#ffefb1" d="M 1242.5,1095.5 C 1352.17,1096.17 1461.83,1096.83 1571.5,1097.5C 1547.69,1102.75 1523.69,1107.25 1499.5,1111C 1427.73,1118.93 1355.73,1122.27 1283.5,1121C 1229.22,1123.73 1175.55,1130.9 1122.5,1142.5C 999.663,1142.17 876.997,1141.17 754.5,1139.5C 760.742,1127.92 769.408,1118.59 780.5,1111.5C 794.905,1104.23 810.238,1100.06 826.5,1099C 956.167,1098.67 1085.83,1098.33 1215.5,1098C 1224.55,1097.63 1233.55,1096.8 1242.5,1095.5 Z"/></g>
<g><path style="opacity:1" fill="#fef5d0" d="M 696.5,1110.5 C 724.672,1110.17 752.672,1110.5 780.5,1111.5C 769.408,1118.59 760.742,1127.92 754.5,1139.5C 750.653,1146.86 747.653,1154.52 745.5,1162.5C 722.673,1161.5 699.673,1161.17 676.5,1161.5C 679.861,1145.75 685.195,1130.75 692.5,1116.5C 694.316,1114.88 695.649,1112.88 696.5,1110.5 Z"/></g>
<g><path style="opacity:1" fill="#fff0b8" d="M 754.5,1139.5 C 876.997,1141.17 999.663,1142.17 1122.5,1142.5C 1101.38,1146.94 1080.72,1152.61 1060.5,1159.5C 1046.29,1163.57 1032.29,1168.24 1018.5,1173.5C 926.995,1173.17 835.662,1172.17 744.5,1170.5C 744.575,1167.79 744.908,1165.13 745.5,1162.5C 747.653,1154.52 750.653,1146.86 754.5,1139.5 Z"/></g>
<g><path style="opacity:1" fill="#ffd536" d="M 1060.5,1159.5 C 1292.17,1166.11 1523.84,1172.78 1755.5,1179.5C 1750.83,1193.17 1746.17,1206.83 1741.5,1220.5C 1737.05,1231.41 1732.55,1242.41 1728,1253.5C 1724.31,1261.55 1720.15,1269.22 1715.5,1276.5C 1430.35,1267.62 1145.02,1259.62 859.5,1252.5C 866.543,1247.47 873.876,1242.81 881.5,1238.5C 900.516,1227.66 919.849,1217.32 939.5,1207.5C 965.248,1194.79 991.581,1183.46 1018.5,1173.5C 1032.29,1168.24 1046.29,1163.57 1060.5,1159.5 Z"/></g>
<g><path style="opacity:1" fill="#fef6d6" d="M 676.5,1161.5 C 699.673,1161.17 722.673,1161.5 745.5,1162.5C 744.908,1165.13 744.575,1167.79 744.5,1170.5C 741.707,1182.19 740.374,1194.19 740.5,1206.5C 740.5,1216.83 740.5,1227.17 740.5,1237.5C 740.5,1239.83 740.5,1242.17 740.5,1244.5C 739.506,1235.35 739.173,1226.01 739.5,1216.5C 716.833,1216.5 694.167,1216.5 671.5,1216.5C 670.396,1197.86 672.063,1179.52 676.5,1161.5 Z"/></g>
<g><path style="opacity:1" fill="#fff1be" d="M 744.5,1170.5 C 835.662,1172.17 926.995,1173.17 1018.5,1173.5C 991.581,1183.46 965.248,1194.79 939.5,1207.5C 873.335,1206.5 807.002,1206.17 740.5,1206.5C 740.374,1194.19 741.707,1182.19 744.5,1170.5 Z"/></g>
<g><path style="opacity:1" fill="#fff2c3" d="M 740.5,1206.5 C 807.002,1206.17 873.335,1206.5 939.5,1207.5C 919.849,1217.32 900.516,1227.66 881.5,1238.5C 834.67,1237.5 787.67,1237.17 740.5,1237.5C 740.5,1227.17 740.5,1216.83 740.5,1206.5 Z"/></g>
<g><path style="opacity:1" fill="#fff8dd" d="M 671.5,1216.5 C 694.167,1216.5 716.833,1216.5 739.5,1216.5C 739.173,1226.01 739.506,1235.35 740.5,1244.5C 740.5,1254.83 740.5,1265.17 740.5,1275.5C 717.5,1275.5 694.5,1275.5 671.5,1275.5C 671.5,1255.83 671.5,1236.17 671.5,1216.5 Z"/></g>
<g><path style="opacity:1" fill="#fee37f" d="M 1741.5,1220.5 C 1743.66,1222.22 1746.32,1223.05 1749.5,1223C 1770.5,1223.67 1791.5,1224.17 1812.5,1224.5C 1800.78,1260.6 1784.28,1294.27 1763,1325.5C 1748.35,1345.15 1729.85,1359.98 1707.5,1370C 1694.75,1373.87 1681.75,1376.54 1668.5,1378C 1502.83,1377.83 1337.17,1377.66 1171.5,1377.5C 1118,1376.5 1064.34,1376.17 1010.5,1376.5C 1010.5,1399.17 1010.5,1421.83 1010.5,1444.5C 987.486,1444.15 964.486,1443.48 941.5,1442.5C 941.5,1427.83 941.5,1413.17 941.5,1398.5C 941.5,1368.17 941.5,1337.83 941.5,1307.5C 1182.17,1307.17 1422.84,1307.67 1663.5,1309C 1680.57,1305.93 1695.57,1298.77 1708.5,1287.5C 1711.6,1284.28 1713.94,1280.62 1715.5,1276.5C 1720.15,1269.22 1724.31,1261.55 1728,1253.5C 1732.55,1242.41 1737.05,1231.41 1741.5,1220.5 Z"/></g>
<g><path style="opacity:1" fill="#fff3ca" d="M 740.5,1237.5 C 787.67,1237.17 834.67,1237.5 881.5,1238.5C 873.876,1242.81 866.543,1247.47 859.5,1252.5C 845.189,1260.99 831.189,1269.99 817.5,1279.5C 792.339,1278.5 767.005,1278.17 741.5,1278.5C 741.737,1277.21 741.404,1276.21 740.5,1275.5C 740.5,1265.17 740.5,1254.83 740.5,1244.5C 740.5,1242.17 740.5,1239.83 740.5,1237.5 Z"/></g>
<g><path style="opacity:1" fill="#ffd433" d="M 859.5,1252.5 C 1145.02,1259.62 1430.35,1267.62 1715.5,1276.5C 1713.94,1280.62 1711.6,1284.28 1708.5,1287.5C 1695.57,1298.77 1680.57,1305.93 1663.5,1309C 1422.84,1307.67 1182.17,1307.17 941.5,1307.5C 941.5,1337.83 941.5,1368.17 941.5,1398.5C 940.502,1369.34 940.169,1340 940.5,1310.5C 887.835,1309.09 835.169,1307.76 782.5,1306.5C 793.881,1297.12 805.548,1288.12 817.5,1279.5C 831.189,1269.99 845.189,1260.99 859.5,1252.5 Z"/></g>
<g><path style="opacity:1" fill="#fef9e5" d="M 671.5,1275.5 C 694.5,1275.5 717.5,1275.5 740.5,1275.5C 740.541,1296.84 740.874,1318.17 741.5,1339.5C 717.493,1360.51 694.159,1382.18 671.5,1404.5C 671.5,1361.5 671.5,1318.5 671.5,1275.5 Z"/></g>
<g><path style="opacity:1" fill="#fff5d1" d="M 740.5,1275.5 C 741.404,1276.21 741.737,1277.21 741.5,1278.5C 767.005,1278.17 792.339,1278.5 817.5,1279.5C 805.548,1288.12 793.881,1297.12 782.5,1306.5C 768.544,1317.12 754.878,1328.12 741.5,1339.5C 740.874,1318.17 740.541,1296.84 740.5,1275.5 Z"/></g>
<g><path style="opacity:1" fill="#ffd22e" d="M 782.5,1306.5 C 835.169,1307.76 887.835,1309.09 940.5,1310.5C 940.169,1340 940.502,1369.34 941.5,1398.5C 941.5,1413.17 941.5,1427.83 941.5,1442.5C 941.5,1467.5 941.5,1492.5 941.5,1517.5C 940.502,1492.67 940.169,1467.67 940.5,1442.5C 874.499,1440.87 808.499,1439.2 742.5,1437.5C 742.5,1454.83 742.5,1472.17 742.5,1489.5C 741.501,1439.67 741.168,1389.67 741.5,1339.5C 754.878,1328.12 768.544,1317.12 782.5,1306.5 Z"/></g>
<g><path style="opacity:1" fill="#ecc436" d="M 1171.5,1377.5 C 1118.17,1377.5 1064.83,1377.5 1011.5,1377.5C 1011.5,1400.83 1011.5,1424.17 1011.5,1447.5C 1010.6,1446.79 1010.26,1445.79 1010.5,1444.5C 1010.5,1421.83 1010.5,1399.17 1010.5,1376.5C 1064.34,1376.17 1118,1376.5 1171.5,1377.5 Z"/></g>
<g><path style="opacity:1" fill="#ffe17b" d="M 741.5,1339.5 C 741.168,1389.67 741.501,1439.67 742.5,1489.5C 742.5,1516.17 742.5,1542.83 742.5,1569.5C 742.5,1580.17 742.5,1590.83 742.5,1601.5C 719.5,1601.19 696.5,1600.85 673.5,1600.5C 673.129,1535.33 672.462,1470.33 671.5,1405.5C 671.5,1405.17 671.5,1404.83 671.5,1404.5C 694.159,1382.18 717.493,1360.51 741.5,1339.5 Z"/></g>
<g><path style="opacity:1" fill="#ffcf28" d="M 941.5,1517.5 C 1084.5,1517.5 1227.5,1517.5 1370.5,1517.5C 1370.67,1548.17 1370.5,1578.84 1370,1609.5C 1368.86,1612.43 1368.02,1615.43 1367.5,1618.5C 1363.71,1625.8 1358.55,1632.14 1352,1637.5C 1351.6,1637.27 1351.43,1636.94 1351.5,1636.5C 1353.4,1603.45 1340.4,1578.29 1312.5,1561C 1273.37,1543.29 1240.03,1550.79 1212.5,1583.5C 1056.02,1578.1 899.351,1573.43 742.5,1569.5C 742.5,1542.83 742.5,1516.17 742.5,1489.5C 742.5,1472.17 742.5,1454.83 742.5,1437.5C 808.499,1439.2 874.499,1440.87 940.5,1442.5C 940.169,1467.67 940.502,1492.67 941.5,1517.5 Z"/></g>
<g><path style="opacity:1" fill="#fee17a" d="M 941.5,1442.5 C 964.486,1443.48 987.486,1444.15 1010.5,1444.5C 1010.26,1445.79 1010.6,1446.79 1011.5,1447.5C 1154.17,1447.5 1296.83,1447.5 1439.5,1447.5C 1439.81,1504.52 1439.48,1561.52 1438.5,1618.5C 1437.6,1619.21 1437.26,1620.21 1437.5,1621.5C 1413.99,1620.9 1390.66,1619.9 1367.5,1618.5C 1368.02,1615.43 1368.86,1612.43 1370,1609.5C 1370.5,1578.84 1370.67,1548.17 1370.5,1517.5C 1227.5,1517.5 1084.5,1517.5 941.5,1517.5C 941.5,1492.5 941.5,1467.5 941.5,1442.5 Z"/></g>
<g><path style="opacity:0.208" fill="#000000" d="M 601.5,1462.5 C 602.203,1515.5 602.703,1568.5 603,1621.5C 607.986,1669.46 626.986,1710.79 660,1745.5C 689.232,1774.71 722.732,1797.88 760.5,1815C 895.21,1872.04 1034.54,1887.38 1178.5,1861C 1248.65,1848.8 1315.32,1826.47 1378.5,1794C 1412.04,1776.12 1441.21,1752.62 1466,1723.5C 1492.53,1690.6 1506.86,1652.94 1509,1610.5C 1509.5,1565.83 1509.67,1521.17 1509.5,1476.5C 1576.43,1492.2 1641.09,1514.36 1703.5,1543C 1748.47,1563.22 1788.3,1590.72 1823,1625.5C 1871.86,1681.01 1872.86,1737.34 1826,1794.5C 1800.67,1820.9 1772.17,1843.06 1740.5,1861C 1674.56,1896.32 1605.23,1922.98 1532.5,1941C 1392.3,1975.82 1249.96,1995.15 1105.5,1999C 950.477,2004.6 796.477,1994.6 643.5,1969C 554.39,1954.07 467.724,1930.4 383.5,1898C 335.567,1878.88 291.234,1853.88 250.5,1823C 226.739,1803.92 208.239,1780.75 195,1753.5C 183.693,1725.51 183.693,1697.51 195,1669.5C 207.679,1643.01 225.512,1620.51 248.5,1602C 281.545,1575.79 317.545,1554.13 356.5,1537C 435.34,1503.04 517.006,1478.2 601.5,1462.5 Z"/></g>
<g><path style="opacity:1" fill="#edc230" d="M 671.5,1405.5 C 672.462,1470.33 673.129,1535.33 673.5,1600.5C 673.145,1613.68 674.479,1626.68 677.5,1639.5C 674.454,1630.88 672.621,1621.88 672,1612.5C 671.5,1543.5 671.333,1474.5 671.5,1405.5 Z"/></g>
<g><path style="opacity:1" fill="#fffefe" d="M 1351.5,1636.5 C 1343.79,1679.64 1317.96,1702.64 1274,1705.5C 1264.06,1705.47 1254.56,1703.47 1245.5,1699.5C 1211.28,1682.08 1196.12,1654.08 1200,1615.5C 1202.25,1604.01 1206.42,1593.34 1212.5,1583.5C 1240.03,1550.79 1273.37,1543.29 1312.5,1561C 1340.4,1578.29 1353.4,1603.45 1351.5,1636.5 Z"/></g>
<g><path style="opacity:1" fill="#ffcc22" d="M 742.5,1569.5 C 899.351,1573.43 1056.02,1578.1 1212.5,1583.5C 1206.42,1593.34 1202.25,1604.01 1200,1615.5C 1196.12,1654.08 1211.28,1682.08 1245.5,1699.5C 1105.33,1748.42 965.998,1745.92 827.5,1692C 807.74,1683.96 789.407,1673.63 772.5,1661C 753.384,1645.94 743.384,1626.1 742.5,1601.5C 742.5,1590.83 742.5,1580.17 742.5,1569.5 Z"/></g>
<g><path style="opacity:1" fill="#fede74" d="M 673.5,1600.5 C 696.5,1600.85 719.5,1601.19 742.5,1601.5C 743.384,1626.1 753.384,1645.94 772.5,1661C 789.407,1673.63 807.74,1683.96 827.5,1692C 965.998,1745.92 1105.33,1748.42 1245.5,1699.5C 1254.56,1703.47 1264.06,1705.47 1274,1705.5C 1317.96,1702.64 1343.79,1679.64 1351.5,1636.5C 1351.43,1636.94 1351.6,1637.27 1352,1637.5C 1358.55,1632.14 1363.71,1625.8 1367.5,1618.5C 1390.66,1619.9 1413.99,1620.9 1437.5,1621.5C 1437.26,1620.21 1437.6,1619.21 1438.5,1618.5C 1435.58,1642 1426.41,1662.67 1411,1680.5C 1386,1708.42 1356.17,1729.59 1321.5,1744C 1151.71,1817.89 980.043,1822.89 806.5,1759C 775.939,1746.73 747.939,1730.4 722.5,1710C 700.495,1690.79 685.495,1667.29 677.5,1639.5C 674.479,1626.68 673.145,1613.68 673.5,1600.5 Z"/></g>
</svg>
